<svg width="1440" height="767" viewBox="0 0 1440 767" fill="none" xmlns="http://www.w3.org/2000/svg">
<mask id="mask0_484:966" style="mask-type:alpha" maskUnits="userSpaceOnUse" x="0" y="0" width="1440" height="767">
<rect width="1440" height="767" fill="#FFEBFF"/>
</mask>
<g mask="url(#mask0_484:966)">
<path d="M751.5 765C906.7 501.4 667.5 146.5 528.5 2H595C1095.4 264 1291.83 619.833 1327.5 765H751.5Z" fill="#FF6634" fill-opacity="0.11"/>
<path d="M798.17 -1C651.889 221.736 205.106 326.777 0 351.456V767H473.714C842.82 742.808 1028.37 244.92 1075 -1H798.17Z" fill="#FF6634" fill-opacity="0.13"/>
<path d="M1830 169.5C1830 376.883 1661.88 545 1454.5 545C1247.12 545 1079 376.883 1079 169.5C1079 -37.8829 1247.12 -206 1454.5 -206C1661.88 -206 1830 -37.8829 1830 169.5ZM1171.45 169.5C1171.45 325.825 1298.17 452.552 1454.5 452.552C1610.83 452.552 1737.55 325.825 1737.55 169.5C1737.55 13.1748 1610.83 -113.552 1454.5 -113.552C1298.17 -113.552 1171.45 13.1748 1171.45 169.5Z" fill="#FF6634" fill-opacity="0.03"/>
</g>
</svg>
