<svg width="84" height="84" viewBox="0 0 84 84" fill="none" xmlns="http://www.w3.org/2000/svg">
<circle cx="42" cy="42" r="42" fill="#FF6634" fill-opacity="0.05"/>
<path d="M34 48C34 47.4696 34.2107 46.9609 34.5858 46.5858C34.9609 46.2107 35.4696 46 36 46C36.5304 46 37.0391 46.2107 37.4142 46.5858C37.7893 46.9609 38 47.4696 38 48V50C38 50.5304 37.7893 51.0391 37.4142 51.4142C37.0391 51.7893 36.5304 52 36 52C35.4696 52 34.9609 51.7893 34.5858 51.4142C34.2107 51.0391 34 50.5304 34 50V48ZM46 40C46 39.4696 46.2107 38.9609 46.5858 38.5858C46.9609 38.2107 47.4696 38 48 38C48.5304 38 49.0391 38.2107 49.4142 38.5858C49.7893 38.9609 50 39.4696 50 40V50C50 50.5304 49.7893 51.0391 49.4142 51.4142C49.0391 51.7893 48.5304 52 48 52C47.4696 52 46.9609 51.7893 46.5858 51.4142C46.2107 51.0391 46 50.5304 46 50V40ZM40 44C40 43.4696 40.2107 42.9609 40.5858 42.5858C40.9609 42.2107 41.4696 42 42 42C42.5304 42 43.0391 42.2107 43.4142 42.5858C43.7893 42.9609 44 43.4696 44 44V50C44 50.5304 43.7893 51.0391 43.4142 51.4142C43.0391 51.7893 42.5304 52 42 52C41.4696 52 40.9609 51.7893 40.5858 51.4142C40.2107 51.0391 40 50.5304 40 50V44Z" fill="#FF6634"/>
<path d="M34 29H32C30.9391 29 29.9217 29.4214 29.1716 30.1716C28.4214 30.9217 28 31.9391 28 33V54C28 55.0609 28.4214 56.0783 29.1716 56.8284C29.9217 57.5786 30.9391 58 32 58H52C53.0609 58 54.0783 57.5786 54.8284 56.8284C55.5786 56.0783 56 55.0609 56 54V33C56 31.9391 55.5786 30.9217 54.8284 30.1716C54.0783 29.4214 53.0609 29 52 29H50V31H52C52.5304 31 53.0391 31.2107 53.4142 31.5858C53.7893 31.9609 54 32.4696 54 33V54C54 54.5304 53.7893 55.0391 53.4142 55.4142C53.0391 55.7893 52.5304 56 52 56H32C31.4696 56 30.9609 55.7893 30.5858 55.4142C30.2107 55.0391 30 54.5304 30 54V33C30 32.4696 30.2107 31.9609 30.5858 31.5858C30.9609 31.2107 31.4696 31 32 31H34V29Z" fill="#FF6634"/>
<path d="M45 28C45.2652 28 45.5196 28.1054 45.7071 28.2929C45.8946 28.4804 46 28.7348 46 29V31C46 31.2652 45.8946 31.5196 45.7071 31.7071C45.5196 31.8946 45.2652 32 45 32H39C38.7348 32 38.4804 31.8946 38.2929 31.7071C38.1054 31.5196 38 31.2652 38 31V29C38 28.7348 38.1054 28.4804 38.2929 28.2929C38.4804 28.1054 38.7348 28 39 28H45ZM39 26C38.2044 26 37.4413 26.3161 36.8787 26.8787C36.3161 27.4413 36 28.2044 36 29V31C36 31.7956 36.3161 32.5587 36.8787 33.1213C37.4413 33.6839 38.2044 34 39 34H45C45.7956 34 46.5587 33.6839 47.1213 33.1213C47.6839 32.5587 48 31.7956 48 31V29C48 28.2044 47.6839 27.4413 47.1213 26.8787C46.5587 26.3161 45.7956 26 45 26H39Z" fill="#FF6634"/>
</svg>
