<svg width="9" height="9" viewBox="0 0 9 9" fill="none" xmlns="http://www.w3.org/2000/svg">
<path d="M1.96875 0C2.04334 0 2.11488 0.0296316 2.16762 0.0823762C2.22037 0.135121 2.25 0.206658 2.25 0.28125V0.5625H6.75V0.28125C6.75 0.206658 6.77963 0.135121 6.83238 0.0823762C6.88512 0.0296316 6.95666 0 7.03125 0C7.10584 0 7.17738 0.0296316 7.23012 0.0823762C7.28287 0.135121 7.3125 0.206658 7.3125 0.28125V0.5625H7.875C8.17337 0.5625 8.45952 0.681026 8.6705 0.892005C8.88147 1.10298 9 1.38913 9 1.6875V7.875C9 8.17337 8.88147 8.45952 8.6705 8.6705C8.45952 8.88147 8.17337 9 7.875 9H1.125C0.826631 9 0.540483 8.88147 0.329505 8.6705C0.118526 8.45952 0 8.17337 0 7.875V1.6875C0 1.38913 0.118526 1.10298 0.329505 0.892005C0.540483 0.681026 0.826631 0.5625 1.125 0.5625H1.6875V0.28125C1.6875 0.206658 1.71713 0.135121 1.76988 0.0823762C1.82262 0.0296316 1.89416 0 1.96875 0V0ZM0.5625 2.25V7.875C0.5625 8.02418 0.621763 8.16726 0.727252 8.27275C0.832742 8.37824 0.975816 8.4375 1.125 8.4375H7.875C8.02418 8.4375 8.16726 8.37824 8.27275 8.27275C8.37824 8.16726 8.4375 8.02418 8.4375 7.875V2.25H0.5625Z" fill="#FF6634"/>
</svg>
