<svg width="84" height="84" viewBox="0 0 84 84" fill="none" xmlns="http://www.w3.org/2000/svg">
<circle cx="42" cy="42" r="42" fill="#FF6634" fill-opacity="0.05"/>
<path d="M39.5212 31.0208C39.803 31.0208 40.0732 31.1328 40.2725 31.332C40.4717 31.5313 40.5837 31.8015 40.5837 32.0833V43.4167H51.917C52.1737 43.4167 52.4218 43.5096 52.6153 43.6784C52.8088 43.8472 52.9347 44.0803 52.9696 44.3347L52.9795 44.4792C52.9795 51.52 47.2703 56.5208 40.2295 56.5208C36.848 56.5208 33.605 55.1775 31.2139 52.7864C28.8228 50.3953 27.4795 47.1523 27.4795 43.7708C27.4795 36.73 32.4803 31.0208 39.5212 31.0208ZM38.4587 33.1982L38.1626 33.2322C32.9351 33.8981 29.6045 38.3634 29.6045 43.7708C29.6045 46.5887 30.7239 49.2913 32.7165 51.2838C34.7091 53.2764 37.4116 54.3958 40.2295 54.3958C45.6369 54.3958 50.1008 51.0638 50.7695 45.8377L50.8007 45.5417H39.5212C39.2644 45.5416 39.0163 45.4487 38.8228 45.2799C38.6293 45.1111 38.5035 44.878 38.4686 44.6237L38.4587 44.4792V33.1982ZM43.7712 27.4792C47.1527 27.4792 50.3957 28.8225 52.7868 31.2135C55.1779 33.6046 56.5212 36.8476 56.5212 40.2292C56.5212 40.5109 56.4092 40.7812 56.21 40.9805C56.0107 41.1797 55.7405 41.2917 55.4587 41.2917H43.7712C43.4894 41.2917 43.2191 41.1797 43.0199 40.9805C42.8206 40.7812 42.7087 40.5109 42.7087 40.2292V28.5417C42.7087 28.2599 42.8206 27.9896 43.0199 27.7904C43.2191 27.5911 43.4894 27.4792 43.7712 27.4792V27.4792ZM44.8337 29.6566V39.1667H54.3423L54.3097 38.8706C54.0086 36.5413 52.9446 34.3773 51.2838 32.7165C49.6231 31.0557 47.459 29.9917 45.1297 29.6906L44.8337 29.6566Z" fill="#FF6634"/>
</svg>
