<svg width="24" height="23" viewBox="0 0 24 23" fill="none" xmlns="http://www.w3.org/2000/svg">
<path d="M12.2125 0.111572C5.90386 0.111572 0.789062 5.22675 0.789062 11.5359C0.789062 17.2372 4.9659 21.9627 10.428 22.8231V14.839H7.52615V11.5359H10.428V9.01885C10.428 6.15335 12.1337 4.57321 14.7419 4.57321C15.9918 4.57321 17.301 4.79601 17.301 4.79601V7.60552H15.857C14.4403 7.60552 13.9971 8.48757 13.9971 9.39132V11.5336H17.1628L16.6567 14.8367H13.9971V22.8208C19.4592 21.965 23.636 17.2383 23.636 11.5359C23.636 5.22675 18.5212 0.111572 12.2125 0.111572V0.111572Z" fill="white"/>
</svg>
