<svg width="87" height="87" viewBox="0 0 87 87" fill="none" xmlns="http://www.w3.org/2000/svg">
<path d="M14.5 14.5V72.5C14.5 74.4228 15.2638 76.2669 16.6235 77.6265C17.9831 78.9862 19.8272 79.75 21.75 79.75H65.25C67.1728 79.75 69.0169 78.9862 70.3765 77.6265C71.7362 76.2669 72.5 74.4228 72.5 72.5V30.2398C72.4999 29.2739 72.3068 28.3178 71.932 27.4276C71.5573 26.5375 71.0084 25.7311 70.3178 25.056L54.2228 9.31625C52.8683 7.99188 51.0493 7.25024 49.155 7.25H21.75C19.8272 7.25 17.9831 8.01384 16.6235 9.37348C15.2638 10.7331 14.5 12.5772 14.5 14.5V14.5Z" stroke="#333333" stroke-width="2" stroke-linecap="round" stroke-linejoin="round"/>
<path d="M32.625 47.125H54.375" stroke="#333333" stroke-width="2" stroke-linecap="round" stroke-linejoin="round"/>
<path d="M32.625 61.625H43.5" stroke="#333333" stroke-width="2" stroke-linecap="round" stroke-linejoin="round"/>
<path d="M50.75 7.25V21.75C50.75 23.6728 51.5138 25.5169 52.8735 26.8765C54.2331 28.2362 56.0772 29 58 29H72.5" stroke="#333333" stroke-width="2" stroke-linejoin="round"/>
</svg>
