<svg width="26" height="26" viewBox="0 0 26 26" fill="none" xmlns="http://www.w3.org/2000/svg">
<path d="M22.75 22.75V7.3125L15.4375 0H6.5C5.63805 0 4.8114 0.34241 4.2019 0.951903C3.59241 1.5614 3.25 2.38805 3.25 3.25V22.75C3.25 23.612 3.59241 24.4386 4.2019 25.0481C4.8114 25.6576 5.63805 26 6.5 26H19.5C20.362 26 21.1886 25.6576 21.7981 25.0481C22.4076 24.4386 22.75 23.612 22.75 22.75ZM15.4375 4.875C15.4375 5.52147 15.6943 6.14145 16.1514 6.59857C16.6085 7.05569 17.2285 7.3125 17.875 7.3125H21.125V22.75C21.125 23.181 20.9538 23.5943 20.649 23.899C20.3443 24.2038 19.931 24.375 19.5 24.375H6.5C6.06902 24.375 5.6557 24.2038 5.35095 23.899C5.0462 23.5943 4.875 23.181 4.875 22.75V3.25C4.875 2.81902 5.0462 2.4057 5.35095 2.10095C5.6557 1.7962 6.06902 1.625 6.5 1.625H15.4375V4.875Z" fill="#A2A2A2"/>
<path d="M7.47945 22.8913C7.16273 22.7646 6.90755 22.52 6.7677 22.2088C6.45083 21.5783 6.55645 20.9478 6.8977 20.4181C7.21945 19.9192 7.75245 19.4951 8.35533 19.1392C9.11898 18.7061 9.92619 18.3548 10.7636 18.0911C11.4139 16.922 11.9903 15.7134 12.4893 14.4722C12.1909 13.7942 11.957 13.0896 11.7906 12.3678C11.6508 11.7178 11.5972 11.0743 11.7158 10.5218C11.8377 9.94657 12.1611 9.42982 12.7721 9.18444C13.0841 9.05932 13.4221 8.98944 13.7503 9.05932C13.9154 9.09447 14.0707 9.16593 14.2047 9.26852C14.3388 9.37111 14.4484 9.50225 14.5255 9.65244C14.6685 9.91894 14.7204 10.2309 14.7318 10.5267C14.7432 10.8322 14.7123 11.1702 14.6554 11.5244C14.5189 12.3532 14.2167 13.3672 13.8104 14.4397C14.2588 15.3985 14.7917 16.3154 15.403 17.1794C16.1262 17.1223 16.8537 17.1496 17.5707 17.2607C18.1622 17.3679 18.7634 17.5776 19.1307 18.0163C19.3257 18.2503 19.4443 18.5363 19.4557 18.8581C19.4671 19.1701 19.3793 19.4788 19.2314 19.7729C19.1034 20.0455 18.9048 20.2789 18.6562 20.4489C18.4105 20.6092 18.1204 20.6877 17.8274 20.6732C17.2896 20.6504 16.7647 20.3547 16.3113 19.9956C15.76 19.5397 15.2633 19.0217 14.8309 18.4518C13.732 18.5765 12.6462 18.7973 11.5858 19.1116C11.1002 19.9727 10.5459 20.7933 9.92833 21.5653C9.45383 22.1341 8.9387 22.6313 8.42195 22.8442C8.12504 22.9785 7.78828 22.9953 7.47945 22.8913ZM9.72033 19.8022C9.45058 19.9257 9.20033 20.0557 8.97445 20.1889C8.44145 20.5042 8.09533 20.8113 7.92308 21.0778C7.77033 21.3134 7.76708 21.4841 7.85808 21.6644C7.87433 21.7002 7.89058 21.7229 7.90033 21.7359C7.91971 21.7308 7.93872 21.7243 7.9572 21.7164C8.17983 21.6254 8.53408 21.3346 8.98908 20.7869C9.24785 20.4701 9.49186 20.1415 9.72033 19.8022ZM12.3853 17.6409C12.928 17.5143 13.4755 17.4097 14.0266 17.3273C13.7307 16.8745 13.4542 16.4094 13.1978 15.9331C12.9429 16.5093 12.672 17.0783 12.3853 17.6393V17.6409ZM16.3601 18.3722C16.6038 18.6371 16.8411 18.8597 17.0669 19.0384C17.4569 19.3472 17.7283 19.4496 17.8762 19.4544C17.9158 19.4596 17.956 19.451 17.9899 19.4301C18.0575 19.3767 18.1102 19.3067 18.1427 19.2269C18.2005 19.128 18.2334 19.0164 18.2386 18.9019C18.2376 18.8638 18.2226 18.8273 18.1963 18.7996C18.1118 18.6988 17.8713 18.5526 17.3546 18.4599C17.0259 18.405 16.6933 18.3762 16.3601 18.3738V18.3722ZM13.1263 12.6749C13.2631 12.2338 13.3716 11.7844 13.4513 11.3294C13.5017 11.0239 13.5212 10.7721 13.5131 10.5738C13.5135 10.4644 13.496 10.3557 13.4611 10.2521C13.3798 10.2621 13.3004 10.284 13.2255 10.3171C13.0841 10.3739 12.9687 10.4893 12.9069 10.7769C12.8419 11.0889 12.8582 11.5391 12.9817 12.1127C13.0207 12.2931 13.0695 12.4816 13.128 12.6749H13.1263Z" fill="#A2A2A2"/>
</svg>
