<svg width="84" height="84" viewBox="0 0 84 84" fill="none" xmlns="http://www.w3.org/2000/svg">
<circle cx="42" cy="42" r="42" fill="#FF6634" fill-opacity="0.05"/>
<path d="M34.5 56.1667C33.3728 56.1667 32.2918 55.7189 31.4948 54.9219C30.6978 54.1248 30.25 53.0438 30.25 51.9166V32.0833C30.25 30.9561 30.6978 29.8751 31.4948 29.0781C32.2918 28.2811 33.3728 27.8333 34.5 27.8333H46.077C47.2036 27.8339 48.2838 28.2818 49.0803 29.0786L54.5062 34.5016C55.3027 35.2986 55.7501 36.3794 55.75 37.5063V51.9166C55.75 53.0438 55.3022 54.1248 54.5052 54.9219C53.7082 55.7189 52.6272 56.1667 51.5 56.1667H34.5ZM33.0833 51.9166C33.0833 52.2924 33.2326 52.6527 33.4983 52.9184C33.7639 53.1841 34.1243 53.3333 34.5 53.3333H51.5C51.8757 53.3333 52.2361 53.1841 52.5017 52.9184C52.7674 52.6527 52.9167 52.2924 52.9167 51.9166V39.1666H48.6667C47.5395 39.1666 46.4585 38.7189 45.6615 37.9219C44.8644 37.1248 44.4167 36.0438 44.4167 34.9166V30.6666H34.5C34.1243 30.6666 33.7639 30.8159 33.4983 31.0816C33.2326 31.3473 33.0833 31.7076 33.0833 32.0833V51.9166ZM48.6667 36.3333H52.3302L47.25 31.2531V34.9166C47.25 35.2924 47.3993 35.6527 47.6649 35.9184C47.9306 36.1841 48.2909 36.3333 48.6667 36.3333ZM48.6667 43.4166C48.6667 43.0409 48.5174 42.6806 48.2517 42.4149C47.9861 42.1492 47.6257 42 47.25 42C46.8743 42 46.5139 42.1492 46.2483 42.4149C45.9826 42.6806 45.8333 43.0409 45.8333 43.4166V49.0833C45.8333 49.459 45.9826 49.8194 46.2483 50.0851C46.5139 50.3507 46.8743 50.5 47.25 50.5C47.6257 50.5 47.9861 50.3507 48.2517 50.0851C48.5174 49.8194 48.6667 49.459 48.6667 49.0833V43.4166ZM44.4167 46.25C44.4167 45.8743 44.2674 45.5139 44.0017 45.2482C43.7361 44.9826 43.3757 44.8333 43 44.8333C42.6243 44.8333 42.2639 44.9826 41.9983 45.2482C41.7326 45.5139 41.5833 45.8743 41.5833 46.25V49.0833C41.5833 49.459 41.7326 49.8194 41.9983 50.0851C42.2639 50.3507 42.6243 50.5 43 50.5C43.3757 50.5 43.7361 50.3507 44.0017 50.0851C44.2674 49.8194 44.4167 49.459 44.4167 49.0833V46.25ZM38.75 47.6666C38.3743 47.6666 38.0139 47.8159 37.7483 48.0816C37.4826 48.3473 37.3333 48.7076 37.3333 49.0833C37.3333 49.459 37.4826 49.8194 37.7483 50.0851C38.0139 50.3507 38.3743 50.5 38.75 50.5H38.7642C39.1399 50.5 39.5002 50.3507 39.7659 50.0851C40.0316 49.8194 40.1808 49.459 40.1808 49.0833C40.1808 48.7076 40.0316 48.3473 39.7659 48.0816C39.5002 47.8159 39.1399 47.6666 38.7642 47.6666H38.75Z" fill="#FF6634"/>
</svg>
